<svg xmlns="http://www.w3.org/2000/svg" viewBox="0 0 5435.36 1318.11">
    <defs>
        <style>
            .cls-1{fill:#6b0000;}.cls-2{fill:#ccc;}.cls-3,.cls-5{fill:#a00;}.cls-4{fill:#fff;}.cls-5{opacity:0;font-size:478.33px;font-family:MyriadPro-Regular,
            Myriad Pro;letter-spacing:0.05em;}
        </style>
    </defs>
    <g id="Layer_2">
        <path class="cls-1"
              d="M226.47,553.1c-28.53-31.32-44.69-62.08-56.33-95l-2.65-6.4c-2.14-2.21-8.31-4.23-11-5.62C48.44,390.87,9.26,211.49,33.2,214.85c211.58,29.71,272.39,2.46,352.61-8.06,31.39-4.12,113-21.44,204.94-14.65,202,8.68,352.46,148.13,352.18,341.17C942.65,728,809.77,871.18,621.56,871.18c-78.64,0-128.33-27-184.28-60.1l2.31-4.18c1.67-5.13,1.83-15.69-14.72-30.25-42.5-37.39-55.73-32.14-82.46-50.42-43.91-30-64.58-86.5-75.22-129.81"
              transform="translate(-26.43 -176)"/>
        <line class="cls-2" x1="406.82" y1="511.14" x2="405.87" y2="513.88"/>
        <path class="cls-2" d="M396.2,632.24" transform="translate(-26.43 -176)"/>
        <path class="cls-3"
              d="M245.69,546.6c-27-28.66-44.16-70.14-55.19-100.3L188,440.45c-2-2-7.87-3.87-10.44-5.14C75.23,384.8,34.06,231.29,56.73,234.37c200.4,27.19,263.91,4.92,339.89-4.71,29.74-3.77,107-19.62,194.11-13.41C782,224.2,913.59,351.55,920.38,527.44c6.87,178.06-121.13,306.09-299.23,313.63-61.1,2.58-113.59-21.84-166.58-52.15l2.18-3.83c1.59-4.7,1.74-14.35-13.94-27.69-40.25-34.21-62-35.62-87.3-52.36-41.59-27.49-59.59-81.19-69.68-120.83"
              transform="translate(-26.43 -176)"/>
        <path class="cls-2" d="M304.82,451.64" transform="translate(-26.43 -176)"/>
        <path class="cls-4"
              d="M90.63,267.51c181.61,25.43,261.48-1.4,330.43-9.77,27-3.28,97.12-17.28,176.08-11.29,173.43,8,292.18,123.68,297.58,282.67,5.47,161-111.16,276.13-272.69,282.18-55.42,2.08-102.91-20.22-150.84-47.85l2-3.45c1.46-4.23,1.64-13-12.53-25.08-36.35-31.1-56.05-32.47-78.93-47.7-37.6-25-52.31-57.75-61.28-93.62,4.33.93,9.3,2,15.09,3.25,39,8.45,53.15,11.45,59.92,12.9,6.21,1.32,6.21,1.32,13.81,3l21.35,4.82c11.27,2.54,17.93,10.14,21.53,16.06,6.14,10.11,8.67,20.21,7,26.51l-.74,2.12c-2.39,7.36,2.07,12.84,10.39,19.57,1.06.86,4.12,3.46,4.21-1.28l.33-16.3c.22-13.43-.89-26.57-8.17-38.54S447,605.67,434,602.73l-21.33-4.82c-7.69-1.74-7.69-1.74-14-3.08-6.77-1.44-20.85-4.45-59.87-12.89-11.27-2.44-19.47-4.19-25.86-5.53-8.73-5.55-28.22-14.51-42.33-31.35-29.69-35.46-38.14-73.85-42.58-95.12l5.69,1c12.84,2.29,18.15,3.25,53,10.78,39,8.45,53.13,11.45,59.92,12.9,6.21,1.32,6.21,1.32,13.79,3l21.37,4.83c11.27,2.54,17.93,10.13,21.53,16.05,6.14,10.11,8.4,20.59,6.74,26.89l-.47,1.74c-2.39,7.37,2.07,12.85,10.4,19.58,1.05.85,4.11,3.45,4.2-1.29l.33-16.3c.79-12.2-.89-26.57-8.17-38.54s-18.15-20.07-31.2-23c-10.84-2.44-17.22-3.89-21.36-4.83-7.68-1.74-7.68-1.74-14-3.08-6.77-1.44-20.86-4.45-59.86-12.88-35.1-7.6-40.5-8.57-53.52-10.9-3.54-.63-7.73-1.38-13.34-2.41a1.27,1.27,0,0,0-.4-.17C126.08,414.61,69.83,264.59,90.63,267.51Z"
              transform="translate(-26.43 -176)"/>
        <text class="cls-5" transform="matrix(-0.94, 0, 0, 1, 798.62, 511.51)">M</text>
        <path class="cls-1"
              d="M1495.65,885.3H1394.72V555.35L1302.2,885.3h-75.69L1134,555.35V885.3H1033.07v-702h92.51L1265.2,674.69l137.93-491.42h92.52Z"
              transform="translate(-26.43 -176)"/>
        <path class="cls-1" d="M1899.34,300.61H1680.67V475.12h151.39V592.46H1680.67V768h218.67V885.3h-319.6v-702h319.6Z"
              transform="translate(-26.43 -176)"/>
        <path class="cls-1"
              d="M2165.11,624.55H2076V885.3H1975v-702h260.73c51.3,0,92.52,49.14,92.52,110.32V514.23c0,48.14-26.08,89.26-62.24,104.3L2345.1,885.3H2241.65Zm45.42-120.35c9.25,0,16.82-9,16.82-20.06V320.67c0-11-7.57-20.06-16.82-20.06H2076V504.2Z"
              transform="translate(-26.43 -176)"/>
        <path class="cls-1"
              d="M2660.47,316.66c0-11-6.73-20.06-16.82-20.06H2534.31c-10.09,0-16.82,9-16.82,20.06V751.92c0,11,6.73,20.06,16.82,20.06h109.34c10.09,0,16.82-9,16.82-20.06V621.54H2761.4V782c0,60.17-41.22,110.31-92.52,110.31h-159.8c-51.3,0-92.52-49.14-92.52-110.31V286.57c0-61.18,41.22-110.32,92.52-110.32h159.8c51.3,0,92.52,49.14,92.52,110.32V417H2660.47Z"
              transform="translate(-26.43 -176)"/>
        <path class="cls-1"
              d="M3207.14,795c0,50.15-33.64,90.26-75.69,90.26H2921.19c-42.06,0-75.7-40.11-75.7-90.26V183.27h100.93V744.9c0,11,7.57,20.05,16.82,20.05H3089.4c9.25,0,16.82-9,16.82-20.05V183.27h100.92Z"
              transform="translate(-26.43 -176)"/>
        <path class="cls-1"
              d="M3481.32,624.55h-89.15V885.3H3291.25v-702H3552c51.3,0,92.52,49.14,92.52,110.32V514.23c0,48.14-26.08,89.26-62.24,104.3l79.06,266.77H3557.86Zm45.42-120.35c9.25,0,16.82-9,16.82-20.06V320.67c0-11-7.57-20.06-16.82-20.06H3392.17V504.2Z"
              transform="translate(-26.43 -176)"/>
        <path class="cls-1"
              d="M4065,775c0,61.18-41.21,110.32-92.52,110.32h-215.3V765h190.07c9.25,0,16.82-9,16.82-20.05V584.43h-143c-51.31,0-92.52-49.14-92.52-110.32V183.27h100.93V444c0,11,7.56,20.05,16.82,20.05h100.92c9.25,0,16.82-9,16.82-20.05V183.27H4065Z"
              transform="translate(-26.43 -176)"/>
        <text x="-26.43" y="-176"/>
        <path class="cls-3"
              d="M1458.71,885.05H1357.78V555.1l-92.51,329.95h-75.7L1097.06,555.1V885.05H996.13V183h92.52l139.61,491.42L1366.2,183h92.51Z"
              transform="translate(-26.43 -176)"/>
        <path class="cls-3"
              d="M1862.41,300.36H1643.73V474.87h151.39V592.21H1643.73v175.5h218.68V885.05h-319.6V183h319.6Z"
              transform="translate(-26.43 -176)"/>
        <path class="cls-3"
              d="M2128.18,624.3H2039V885.05H1938.1V183h260.72c51.31,0,92.52,49.14,92.52,110.32V514c0,48.14-26.07,89.26-62.24,104.3l79.06,266.77H2204.71ZM2173.59,504c9.26,0,16.82-9,16.82-20.06V320.42c0-11-7.56-20.06-16.82-20.06H2039V504Z"
              transform="translate(-26.43 -176)"/>
        <path class="cls-3"
              d="M2623.53,316.41c0-11-6.72-20.06-16.82-20.06H2497.38c-10.1,0-16.82,9-16.82,20.06V751.67c0,11,6.72,20.06,16.82,20.06h109.33c10.1,0,16.82-9,16.82-20.06V621.29h100.93V781.75c0,60.18-41.21,110.32-92.52,110.32H2472.15c-51.31,0-92.52-49.14-92.52-110.32V286.32c0-61.18,41.21-110.32,92.52-110.32h159.79c51.31,0,92.52,49.14,92.52,110.32V416.7H2623.53Z"
              transform="translate(-26.43 -176)"/>
        <path class="cls-3"
              d="M3170.21,794.79c0,50.15-33.64,90.26-75.69,90.26H2884.25c-42.05,0-75.69-40.11-75.69-90.26V183h100.92V744.65c0,11,7.57,20.05,16.82,20.05h126.16c9.25,0,16.82-9,16.82-20.05V183h100.93Z"
              transform="translate(-26.43 -176)"/>
        <path class="cls-3"
              d="M3444.39,624.3h-89.15V885.05H3254.31V183H3515c51.3,0,92.51,49.14,92.51,110.32V514c0,48.14-26.07,89.26-62.24,104.3l79.06,266.77H3520.92ZM3489.8,504c9.26,0,16.83-9,16.83-20.06V320.42c0-11-7.57-20.06-16.83-20.06H3355.24V504Z"
              transform="translate(-26.43 -176)"/>
        <path class="cls-3"
              d="M4028.07,774.73c0,61.18-41.22,110.32-92.52,110.32H3720.24V764.7h190.08c9.25,0,16.82-9,16.82-20.05V584.18h-143c-51.3,0-92.51-49.14-92.51-110.32V183h100.92V443.78c0,11,7.57,20.05,16.82,20.05h100.93c9.25,0,16.82-9,16.82-20.05V183h100.93Z"
              transform="translate(-26.43 -176)"/>
    </g>
</svg>